# xmcd
#
# Track frame offsets:
#	150
#	21970
#	48591
#	90191
#	127447
#	175768
#	209638
#	234845
#	260847
#
# Disc length: 4010 seconds
#
# Revision: 0
# Processed by: cddbd v1.5.1PL0 Copyright (c) Steve Scherf et al.
# Submitted via: EasyCDDAExtractor 7.5.0.1
#
DISCID=7e0fa809
DTITLE=petri kosonen and undividedheart - aamen! [CD1)
DYEAR=2004
DGENRE=Praise
TTITLE0=aamen!
TTITLE1=sinulle yksin kuuluu kunnia ja voima
TTITLE2=syd‰men silm‰ni avaa
TTITLE3=halleluja, tunnet syd‰meni
TTITLE4=sun l‰sn‰olossas
TTITLE5=trading my sorrows
TTITLE6=herra sua m‰ koroitan
TTITLE7=pid‰ jeesus
TTITLE8=herran m‰ n‰‰n
EXTD=
EXTT0=
EXTT1=
EXTT2=
EXTT3=
EXTT4=
EXTT5=
EXTT6=
EXTT7=
EXTT8=
PLAYORDER=
